<svg width="24" height="24" xmlns="http://www.w3.org/2000/svg" fill-rule="evenodd" fill="#68e1fd" clip-rule="evenodd"><path d="M4.781 24h-.001c-.603 0-1.097-.475-1.123-1.079-.129-3.12-.492-11.95-.492-11.95l-1.716 3.106c-.186.339-.593.486-.953.347l-.001-.001c-.304-.118-.495-.407-.495-.72l.029-.21 1.659-5.856c.163-.574.687-.97 1.284-.97h18.056c.597 0 1.121.396 1.284.97l1.659 5.856.029.21c0 .313-.191.602-.495.72l-.001.001c-.36.139-.767-.008-.953-.347l-1.716-3.106s-.363 8.83-.492 11.95c-.026.604-.52 1.079-1.123 1.079h-.001c-.591 0-1.075-.459-1.12-1.047-.102-1.297-.374-4.4-.456-5.628-.034-.51-.407-.81-.812-.81-.363 0-.771.3-.804.81-.083 1.228-.355 4.331-.456 5.628-.046.588-.53 1.047-1.12 1.047h-.002c-.602 0-1.097-.475-1.122-1.079-.13-3.12-.644-12.921-.644-12.921h-1.348s-.532 9.801-.662 12.921c-.025.604-.52 1.079-1.122 1.079h-.002c-.59 0-1.074-.459-1.12-1.047-.101-1.297-.373-4.4-.456-5.628-.033-.51-.441-.81-.804-.81-.405 0-.778.3-.812.81-.082 1.228-.354 4.331-.456 5.628-.045.588-.529 1.047-1.12 1.047zm2.384-24c1.656 0 3 1.344 3 3s-1.344 3-3 3c-1.655 0-3-1.344-3-3s1.345-3 3-3zm9.67 0c-1.656 0-3 1.344-3 3s1.344 3 3 3c1.655 0 3-1.344 3-3s-1.345-3-3-3z"/></svg>